<?xml version="1.0" encoding="utf-8"?>
<!-- Generator: Adobe Illustrator 27.5.0, SVG Export Plug-In . SVG Version: 6.00 Build 0)  -->
<svg version="1.1" id="_x31__x2C_5" xmlns="http://www.w3.org/2000/svg" xmlns:xlink="http://www.w3.org/1999/xlink" x="0px"
	 y="0px" viewBox="0 0 512 512" style="enable-background:new 0 0 512 512;" xml:space="preserve">
<g>
	<path d="M393.1,52.7C291.5,52.7,221.6,0,172.6,0S20.8,28.2,20.8,253.6S159.2,512,213.1,512C465.4,512,573.2,52.7,393.1,52.7z"/>
</g>
<g>
	<g>
		<path d="M378.3,116.3l20.8-20.8l10.4,10.4l-20.8,20.8L378.3,116.3z"/>
	</g>
	<g>
		<path d="M0,0"/>
	</g>
	<g>
		<path d="M323.7,103.3l10.4-10.4l20.8,20.8l-10.4,10.4L323.7,103.3z"/>
	</g>
</g>
<g>
	<circle cx="148.8" cy="123.7" r="33.1"/>
</g>
<g>
	<path d="M211.3,237.6c0-24.4-19.7-44.1-44.1-44.1h-36.8c-24.4,0-44.1,19.7-44.1,44.1v60.7c0,5.6,3.2,10.7,8.1,13.1l13.1,6.6
		c5,2.5,8.1,7.6,8.1,13.1v75.4c0,8.1,6.6,14.7,14.7,14.7h36.8c8.1,0,14.7-6.6,14.7-14.7v-75.4c0-5.6,3.1-10.7,8.1-13.1l13.1-6.6
		c5-2.5,8.1-7.6,8.1-13.1L211.3,237.6L211.3,237.6z"/>
</g>
<g>
	<circle cx="325.2" cy="329.5" r="62.5"/>
</g>
<g>
	<path d="M148.8,123.7c0-12.2,6.7-22.8,16.5-28.5c-4.9-2.8-10.5-4.6-16.5-4.6c-18.3,0-33.1,14.8-33.1,33.1s14.8,33.1,33.1,33.1
		c6.1,0,11.7-1.8,16.5-4.6C155.5,146.5,148.8,135.9,148.8,123.7z"/>
</g>
<g>
	<path d="M0,0"/>
</g>
<g>
	<path d="M295.8,329.5c0-28.7,19.5-52.7,45.9-60c-5.3-1.5-10.8-2.5-16.5-2.5c-34.5,0-62.5,28-62.5,62.5s28,62.5,62.5,62.5
		c5.8,0,11.2-1,16.5-2.5C315.3,382.2,295.8,358.2,295.8,329.5z"/>
</g>
<g>
	<path d="M148.8,167.8c-24.3,0-44.1-19.8-44.1-44.1s19.8-44.1,44.1-44.1s44.1,19.8,44.1,44.1S173.1,167.8,148.8,167.8z M148.8,101.7
		c-12.2,0-22.1,9.9-22.1,22.1s9.9,22.1,22.1,22.1s22.1-9.9,22.1-22.1S160.9,101.7,148.8,101.7z"/>
</g>
<g>
	<path d="M167.2,432.4h-36.8c-14.2,0-25.7-11.5-25.7-25.7v-75.4c0-1.4-0.8-2.7-2-3.3l-13.2-6.6c-8.8-4.4-14.2-13.2-14.2-23v-60.7
		c0-30.4,24.7-55.1,55.1-55.1h36.8c30.4,0,55.1,24.7,55.1,55.1v60.7c0,9.8-5.4,18.6-14.2,23l-13.2,6.6c-1.2,0.6-2,1.9-2,3.3v75.4
		C192.9,420.9,181.3,432.4,167.2,432.4L167.2,432.4z M130.4,204.6c-18.2,0-33.1,14.8-33.1,33.1v60.7c0,1.4,0.8,2.7,2,3.3l13.2,6.6
		c8.8,4.4,14.2,13.2,14.2,23v75.4c0,2,1.7,3.7,3.7,3.7h36.8c2,0,3.7-1.6,3.7-3.7v-75.4c0-9.8,5.4-18.6,14.2-23l13.2-6.6
		c1.2-0.6,2-1.9,2-3.3v-60.7c0-18.2-14.9-33.1-33.1-33.1L130.4,204.6L130.4,204.6z"/>
</g>
<g>
	<path d="M325.2,403c-40.5,0-73.5-33-73.5-73.5s33-73.5,73.5-73.5s73.5,33,73.5,73.5S365.7,403,325.2,403z M325.2,278
		c-28.4,0-51.5,23.1-51.5,51.5s23.1,51.5,51.5,51.5s51.5-23.1,51.5-51.5S353.5,278,325.2,278z"/>
</g>
<g>
	<path d="M356.3,376.3l15.6-15.6l60.7,60.7L417,437L356.3,376.3z"/>
</g>
</svg>
