<?xml version="1.0" encoding="utf-8"?>
<!-- Generator: Adobe Illustrator 27.5.0, SVG Export Plug-In . SVG Version: 6.00 Build 0)  -->
<svg version="1.1" id="_x31__x2C_5" xmlns="http://www.w3.org/2000/svg" xmlns:xlink="http://www.w3.org/1999/xlink" x="0px"
	 y="0px" viewBox="0 0 512 512" style="enable-background:new 0 0 512 512;" xml:space="preserve">
<g>
	<path class="st0" d="M52.7,406.1C52.7,304.4,0,234.6,0,185.6S28.2,33.7,253.6,33.7S512,172.2,512,226.1
		C512,478.4,52.7,586.2,52.7,406.1z"/>
</g>
<g>
	<g>
		<path class="st0" d="M386.9,97.3l10.4-10.4l20.8,20.8l-10.4,10.4L386.9,97.3z"/>
	</g>
	<g>
		<path class="st1" d="M446.6,157.1l10.4-10.4l20.8,20.8l-10.4,10.4L446.6,157.1z"/>
	</g>
	<g>
		<path class="st1" d="M444,107.7l20.8-20.8l10.4,10.4l-20.8,20.8L444,107.7z"/>
	</g>
</g>
<path class="st2" id="Icon_awesome-laptop" d="M423.5,379.7H284.6c-0.4,11.3-8.4,18.3-18.8,18.3H231c-10.7,0-18.9-10-18.8-18.3h-137
	c-5.1,0-9.2,4.1-9.2,9.2v9.2c0.1,20.2,16.4,36.6,36.7,36.7H396c20.2-0.1,36.6-16.4,36.7-36.7v-9.2
	C432.6,383.8,428.5,379.7,423.5,379.7z M396,168.9c0-15.2-12.3-27.5-27.5-27.5H130.2c-15.2,0-27.5,12.3-27.5,27.5v192.5H396V168.9z
	 M359.3,324.7h-220V178h220L359.3,324.7z"/>
<path class="st2" id="Icon_material-web" d="M330,187.5H168.6c-11.1,0-20.1,7.3-20.1,16.2l-0.1,97.1c0,8.9,9.1,16.2,20.2,16.2H330
	c11.1,0,20.2-7.3,20.2-16.2v-97.1C350.2,194.7,341.1,187.5,330,187.5z M279.6,300.7h-111v-32.4h111V300.7z M279.6,260.3h-111v-32.4
	h111V260.3z M330,300.7h-40.4v-72.8H330V300.7z"/>
</svg>
