<?xml version="1.0" encoding="utf-8"?>
<!-- Generator: Adobe Illustrator 27.5.0, SVG Export Plug-In . SVG Version: 6.00 Build 0)  -->
<svg version="1.1" id="_x31__x2C_5" xmlns="http://www.w3.org/2000/svg" xmlns:xlink="http://www.w3.org/1999/xlink" x="0px"
	 y="0px" viewBox="0 0 512 512" style="enable-background:new 0 0 512 512;" xml:space="preserve">
<g>
	<path class="st0" d="M393.1,52.7C291.5,52.7,221.6,0,172.6,0S20.8,28.2,20.8,253.6S159.2,512,213.1,512C465.4,512,573.2,52.7,393.1,52.7z"/>
</g>
<g>
	<g>
		<path class="st0" d="M378.3,116.3l20.8-20.8l10.4,10.4l-20.8,20.8L378.3,116.3z"/>
	</g>
	<g>
		<path class="st1" d="M0,0"/>
	</g>
	<g>
		<path class="st1" d="M323.7,103.3l10.4-10.4l20.8,20.8l-10.4,10.4L323.7,103.3z"/>
	</g>
</g>
<g>
	<path class="st3" d="M0,0"/>
</g>
<path class="st3" id="Icon_awesome-laptop-code" d="M215.4,304.2c3.6,3.1,9,3.1,12.6,0l6.3-5.7c3.1-2.7,3.5-7.4,0.8-10.5
	c-0.3-0.3-0.5-0.6-0.8-0.8l-19.9-17.9l19.9-17.9c3.1-2.7,3.5-7.4,0.8-10.5c-0.3-0.3-0.5-0.6-0.8-0.8l-6.3-5.7c-3.6-3.1-9-3.1-12.6,0
	l-32.5,29.2c-3.1,2.7-3.5,7.4-0.8,10.5c0.3,0.3,0.5,0.6,0.8,0.8L215.4,304.2L215.4,304.2z M269,298.5l6.3,5.7c3.6,3.1,9,3.1,12.6,0
	l32.5-29.2c3.1-2.7,3.5-7.4,0.8-10.5c-0.3-0.3-0.5-0.6-0.8-0.8l-32.5-29.2c-3.6-3.1-9-3.1-12.6,0L269,240c-3.1,2.7-3.5,7.4-0.8,10.5
	c0.3,0.3,0.5,0.6,0.8,0.8l19.9,17.9L269,287.2c-3.1,2.7-3.5,7.4-0.8,10.5C268.4,298,268.7,298.3,269,298.5L269,298.5z M421.3,381.6
	H286c-0.4,9.9-8.2,16-18.3,16h-33.9c-10.4,0-18.4-8.8-18.3-16H82.1c-4.9,0-8.9,3.6-8.9,8v8c0,17.6,16.1,32.1,35.7,32.1h285.6
	c19.6,0,35.7-14.4,35.7-32.1v-8C430.2,385.2,426.2,381.6,421.3,381.6z M394.5,197.1c0-13.2-12-24.1-26.8-24.1H135.6
	c-14.7,0-26.8,10.8-26.8,24.1v168.5h285.6V197.1z M358.8,333.4H144.6V205.1h214.2V333.4z"/>
</svg>
